<svg version="1.1" id="Layer_1" xmlns="http://www.w3.org/2000/svg" xmlns:xlink="http://www.w3.org/1999/xlink" x="0px" y="0px"
	 width="100%" viewBox="0 0 332 448" enable-background="new 0 0 332 448" xml:space="preserve">
<path fill="#010101" opacity="1.000000" stroke="none" 
	d="
M161.000000,449.000000 
	C107.333344,449.000000 54.166687,449.000000 1.000021,449.000000 
	C1.000014,299.666718 1.000014,150.333405 1.000007,1.000082 
	C111.666603,1.000054 222.333206,1.000054 332.999878,1.000027 
	C332.999908,150.333252 332.999908,299.666504 332.999939,448.999878 
	C275.833344,449.000000 218.666672,449.000000 161.000000,449.000000 
M219.122375,238.361389 
	C217.006363,244.425812 214.890366,250.490219 212.553848,257.186676 
	C233.914825,237.907166 248.222992,215.146790 254.095551,187.276505 
	C254.586578,187.369019 255.077606,187.461517 255.568634,187.554031 
	C256.065704,198.031296 256.562775,208.508560 257.033325,218.426712 
	C254.483582,219.280930 251.339920,219.432510 250.842545,220.658066 
	C248.775894,225.750320 247.507370,231.166458 245.668076,237.406464 
	C249.184692,236.476440 251.567307,235.892151 253.923309,235.215271 
	C263.479889,232.469620 265.237305,230.076721 265.794006,220.089569 
	C266.664124,204.479706 267.729034,188.880630 268.584106,173.270020 
	C268.686340,171.403870 268.581543,169.046143 267.551086,167.695923 
	C265.245819,164.675323 262.297302,162.145447 259.608734,159.417709 
	C257.646729,157.427124 255.743561,157.480316 254.273788,159.877182 
	C249.412399,167.805161 242.120377,173.011215 234.364456,177.631699 
	C221.940491,185.033066 210.994919,180.356873 207.419922,166.270599 
	C205.917740,160.351669 208.205566,152.599503 211.923141,151.011627 
	C216.193451,149.187683 221.520233,151.791199 225.271713,158.159256 
	C227.842422,162.522964 229.775391,167.262360 232.250519,172.363663 
	C235.170914,170.604950 238.046448,169.021591 240.764587,167.203003 
	C245.299622,164.168823 247.733261,160.295441 245.887421,154.511276 
	C244.883575,151.365631 244.484634,148.026718 243.816467,144.774231 
	C241.534225,133.664688 239.253632,122.554817 236.742264,110.324348 
	C234.265976,115.038063 232.370056,118.647011 230.384872,122.425903 
	C228.932526,121.748055 227.770111,121.111794 226.542770,120.647011 
	C212.482101,115.322342 198.663300,115.650986 185.959549,124.016548 
	C174.509567,131.556473 166.591232,142.543320 158.943207,154.602783 
	C165.333923,160.833954 171.554276,167.045013 177.935333,173.086349 
	C187.355988,182.005447 197.406219,190.322723 206.239014,199.782669 
	C215.962677,210.196716 221.746796,222.588028 219.122375,238.361389 
M207.878891,235.216187 
	C207.878891,241.409561 207.878891,247.602921 207.878891,254.514328 
	C209.020905,252.979996 210.198837,251.767120 210.950302,250.331085 
	C219.254150,234.462692 217.603775,219.279938 206.475037,205.615997 
	C200.846588,198.705307 193.976669,192.731140 187.256180,186.800247 
	C173.906143,175.018707 159.760193,164.083954 148.893341,149.748123 
	C141.404129,139.868164 135.539200,129.210892 136.676346,116.328819 
	C138.313156,97.786308 148.988342,84.733986 163.903625,74.928627 
	C169.246033,71.416504 175.358749,68.841705 181.431992,66.741821 
	C187.462555,64.656677 193.885696,63.706909 200.540634,62.165676 
	C199.249298,61.847710 198.306641,61.470917 197.341354,61.399426 
	C180.587479,60.158581 164.075714,60.964081 148.220428,67.280418 
	C111.366852,81.961929 95.665337,117.442917 110.790054,152.475067 
	C119.079239,171.674622 133.902603,184.826523 151.972809,194.436279 
	C164.150696,200.912521 176.818649,206.462006 189.069214,212.808548 
	C198.027985,217.449768 205.340164,223.840195 207.878891,235.216187 
M101.121040,120.013939 
	C102.783340,104.028717 111.255226,91.415451 122.626564,79.001762 
	C113.150200,82.371414 99.996056,92.937233 91.664619,103.220947 
	C67.738609,132.753448 72.184486,175.295029 101.703522,199.046707 
	C117.225876,211.536331 135.569199,217.756790 154.433441,222.956451 
	C164.309692,225.678665 174.408279,228.168976 183.678848,232.369736 
	C195.534134,237.741730 199.561310,246.734772 198.102173,259.119141 
	C199.277191,258.114075 200.299362,256.969208 201.032410,255.662155 
	C208.235565,242.818970 205.654480,228.592010 193.424026,220.398880 
	C184.789444,214.614639 175.026108,210.532806 165.861603,205.517532 
	C155.534393,199.865936 144.511581,195.080750 135.206985,188.046204 
	C113.192024,171.402252 98.874596,150.182968 101.121040,120.013939 
M74.562225,209.898285 
	C82.661491,226.256989 96.995148,234.882553 113.350227,240.787338 
	C130.724869,247.060211 148.844269,249.145935 167.199692,250.042877 
	C172.074371,250.281082 177.086212,251.582153 181.645599,253.381882 
	C186.848816,255.435730 189.200500,259.922638 188.063828,266.297791 
	C196.758179,255.472839 195.816162,244.701233 184.680115,238.193710 
	C176.935699,233.668137 167.922668,231.246109 159.366272,228.192871 
	C145.783264,223.345947 131.728455,219.623764 118.561256,213.855301 
	C98.835876,205.213730 83.253784,191.513458 76.669891,170.230209 
	C73.519905,160.047516 72.457596,149.219009 70.735939,140.184738 
	C64.131721,162.322159 64.246384,185.949738 74.562225,209.898285 
M109.072083,366.063232 
	C107.730904,370.491272 105.039246,373.591553 100.537003,375.075226 
	C89.731300,378.636230 80.738953,372.341522 80.398705,360.595734 
	C80.128738,351.275909 80.341629,341.942047 80.340530,332.614441 
	C80.340012,328.182678 80.340446,323.750916 80.340446,319.341949 
	C74.747444,319.341949 69.801483,319.341949 64.587425,319.341949 
	C64.587425,334.164734 63.870522,348.815430 64.773735,363.365570 
	C65.838684,380.521057 74.532860,388.572113 91.630157,390.428680 
	C111.192154,392.552917 124.397301,381.808899 125.637062,362.212921 
	C126.214386,353.087585 125.837074,343.901245 125.874191,334.742523 
	C125.894852,329.642700 125.877899,324.542725 125.877899,319.316681 
	C120.331581,319.316681 115.405304,319.316681 109.991196,319.316681 
	C109.991196,327.280762 110.091270,335.061005 109.962463,342.837494 
	C109.838715,350.309570 109.477921,357.777649 109.072083,366.063232 
M190.405472,372.115417 
	C189.391235,372.688599 188.405975,373.322113 187.358139,373.825287 
	C179.336716,377.677216 170.042297,376.393188 164.146637,370.646027 
	C157.409058,364.078186 155.526169,353.177582 159.599014,344.318481 
	C163.327011,336.209442 170.685715,331.415833 179.742340,332.943726 
	C185.354279,333.890472 190.588287,337.077484 196.423981,339.433319 
	C199.059662,336.344421 202.249756,332.605743 205.416489,328.894501 
	C189.045776,313.498230 163.594269,314.290894 149.616089,330.250153 
	C136.580200,345.133575 138.443649,369.976990 153.522980,382.336273 
	C169.184402,395.172668 193.789169,393.098175 205.669067,377.661591 
	C202.281860,374.635559 198.857300,371.576172 195.248993,368.352631 
	C194.122467,369.256989 192.580383,370.494995 190.405472,372.115417 
M250.501923,333.663055 
	C258.290222,333.663055 266.078491,333.663055 274.100220,333.663055 
	C274.100220,328.621765 274.100220,324.027344 274.100220,319.331360 
	C256.267334,319.331360 238.671753,319.331360 221.026596,319.331360 
	C221.026596,342.762177 221.026596,365.980835 221.026596,389.087830 
	C226.352585,389.087830 231.305832,389.087830 236.775513,389.087830 
	C236.775513,380.100311 236.775513,371.351715 236.775513,362.228912 
	C248.076859,362.228912 258.860474,362.228912 269.514130,362.228912 
	C269.514130,357.254242 269.514130,352.683258 269.514130,347.780365 
	C258.369263,347.780365 247.587738,347.780365 236.903625,347.780365 
	C236.903625,342.981323 236.903625,338.537750 236.903625,333.663025 
	C241.254730,333.663025 245.378220,333.663025 250.501923,333.663055 
M131.163315,250.575897 
	C114.065575,246.563873 97.999619,240.063904 83.232712,230.342255 
	C94.893646,247.436066 109.215591,261.346802 128.253876,269.560089 
	C142.695099,275.790100 157.774368,278.726410 173.438614,274.968475 
	C181.109482,273.128204 185.297089,268.509338 184.708267,263.635620 
	C184.081314,258.446167 178.819427,254.667313 171.182953,254.030243 
	C158.114578,252.940048 145.041962,251.900604 131.163315,250.575897 
M182.901169,77.590889 
	C182.354782,77.562531 181.363708,77.399597 181.325729,77.525101 
	C179.357147,84.030006 174.539749,87.369606 166.946442,89.338982 
	C175.399811,90.324371 179.183807,95.187408 181.454910,100.237442 
	C185.624344,96.292877 189.656082,92.478600 192.905960,89.403999 
	C190.174149,86.274986 186.681229,82.274185 182.901169,77.590889 
z"/>
<path fill="#EEC116" opacity="1.000000" stroke="none" 
	d="
M219.186493,237.939056 
	C221.746796,222.588028 215.962677,210.196716 206.239014,199.782669 
	C197.406219,190.322723 187.355988,182.005447 177.935333,173.086349 
	C171.554276,167.045013 165.333923,160.833954 158.943207,154.602783 
	C166.591232,142.543320 174.509567,131.556473 185.959549,124.016548 
	C198.663300,115.650986 212.482101,115.322342 226.542770,120.647011 
	C227.770111,121.111794 228.932526,121.748055 230.384872,122.425903 
	C232.370056,118.647011 234.265976,115.038063 236.742264,110.324348 
	C239.253632,122.554817 241.534225,133.664688 243.816467,144.774231 
	C244.484634,148.026718 244.883575,151.365631 245.887421,154.511276 
	C247.733261,160.295441 245.299622,164.168823 240.764587,167.203003 
	C238.046448,169.021591 235.170914,170.604950 232.250519,172.363663 
	C229.775391,167.262360 227.842422,162.522964 225.271713,158.159256 
	C221.520233,151.791199 216.193451,149.187683 211.923141,151.011627 
	C208.205566,152.599503 205.917740,160.351669 207.419922,166.270599 
	C210.994919,180.356873 221.940491,185.033066 234.364456,177.631699 
	C242.120377,173.011215 249.412399,167.805161 254.273788,159.877182 
	C255.743561,157.480316 257.646729,157.427124 259.608734,159.417709 
	C262.297302,162.145447 265.245819,164.675323 267.551086,167.695923 
	C268.581543,169.046143 268.686340,171.403870 268.584106,173.270020 
	C267.729034,188.880630 266.664124,204.479706 265.794006,220.089569 
	C265.237305,230.076721 263.479889,232.469620 253.923309,235.215271 
	C251.567307,235.892151 249.184692,236.476440 245.668076,237.406464 
	C247.507370,231.166458 248.775894,225.750320 250.842545,220.658066 
	C251.339920,219.432510 254.483582,219.280930 257.033325,218.426712 
	C256.562775,208.508560 256.065704,198.031296 255.568634,187.554031 
	C255.077606,187.461517 254.586578,187.369019 254.095551,187.276505 
	C248.222992,215.146790 233.914825,237.907166 212.553848,257.186676 
	C214.890366,250.490219 217.006363,244.425812 219.186493,237.939056 
z"/>
<path fill="#EEC116" opacity="1.000000" stroke="none" 
	d="
M207.714935,234.816559 
	C205.340164,223.840195 198.027985,217.449768 189.069214,212.808548 
	C176.818649,206.462006 164.150696,200.912521 151.972809,194.436279 
	C133.902603,184.826523 119.079239,171.674622 110.790054,152.475067 
	C95.665337,117.442917 111.366852,81.961929 148.220428,67.280418 
	C164.075714,60.964081 180.587479,60.158581 197.341354,61.399426 
	C198.306641,61.470917 199.249298,61.847710 200.540634,62.165676 
	C193.885696,63.706909 187.462555,64.656677 181.431992,66.741821 
	C175.358749,68.841705 169.246033,71.416504 163.903625,74.928627 
	C148.988342,84.733986 138.313156,97.786308 136.676346,116.328819 
	C135.539200,129.210892 141.404129,139.868164 148.893341,149.748123 
	C159.760193,164.083954 173.906143,175.018707 187.256180,186.800247 
	C193.976669,192.731140 200.846588,198.705307 206.475037,205.615997 
	C217.603775,219.279938 219.254150,234.462692 210.950302,250.331085 
	C210.198837,251.767120 209.020905,252.979996 207.878891,254.514328 
	C207.878891,247.602921 207.878891,241.409561 207.714935,234.816559 
z"/>
<path fill="#EDC117" opacity="1.000000" stroke="none" 
	d="
M101.069031,120.468193 
	C98.874596,150.182968 113.192024,171.402252 135.206985,188.046204 
	C144.511581,195.080750 155.534393,199.865936 165.861603,205.517532 
	C175.026108,210.532806 184.789444,214.614639 193.424026,220.398880 
	C205.654480,228.592010 208.235565,242.818970 201.032410,255.662155 
	C200.299362,256.969208 199.277191,258.114075 198.102173,259.119141 
	C199.561310,246.734772 195.534134,237.741730 183.678848,232.369736 
	C174.408279,228.168976 164.309692,225.678665 154.433441,222.956451 
	C135.569199,217.756790 117.225876,211.536331 101.703522,199.046707 
	C72.184486,175.295029 67.738609,132.753448 91.664619,103.220947 
	C99.996056,92.937233 113.150200,82.371414 122.626564,79.001762 
	C111.255226,91.415451 102.783340,104.028717 101.069031,120.468193 
z"/>
<path fill="#ECC017" opacity="1.000000" stroke="none" 
	d="
M74.384369,209.567429 
	C64.246384,185.949738 64.131721,162.322159 70.735939,140.184738 
	C72.457596,149.219009 73.519905,160.047516 76.669891,170.230209 
	C83.253784,191.513458 98.835876,205.213730 118.561256,213.855301 
	C131.728455,219.623764 145.783264,223.345947 159.366272,228.192871 
	C167.922668,231.246109 176.935699,233.668137 184.680115,238.193710 
	C195.816162,244.701233 196.758179,255.472839 188.063828,266.297791 
	C189.200500,259.922638 186.848816,255.435730 181.645599,253.381882 
	C177.086212,251.582153 172.074371,250.281082 167.199692,250.042877 
	C148.844269,249.145935 130.724869,247.060211 113.350227,240.787338 
	C96.995148,234.882553 82.661491,226.256989 74.384369,209.567429 
z"/>
<path fill="#FAFAFA" opacity="1.000000" stroke="none" 
	d="
M109.146683,365.655365 
	C109.477921,357.777649 109.838715,350.309570 109.962463,342.837494 
	C110.091270,335.061005 109.991196,327.280762 109.991196,319.316681 
	C115.405304,319.316681 120.331581,319.316681 125.877899,319.316681 
	C125.877899,324.542725 125.894852,329.642700 125.874191,334.742523 
	C125.837074,343.901245 126.214386,353.087585 125.637062,362.212921 
	C124.397301,381.808899 111.192154,392.552917 91.630157,390.428680 
	C74.532860,388.572113 65.838684,380.521057 64.773735,363.365570 
	C63.870522,348.815430 64.587425,334.164734 64.587425,319.341949 
	C69.801483,319.341949 74.747444,319.341949 80.340446,319.341949 
	C80.340446,323.750916 80.340012,328.182678 80.340530,332.614441 
	C80.341629,341.942047 80.128738,351.275909 80.398705,360.595734 
	C80.738953,372.341522 89.731300,378.636230 100.537003,375.075226 
	C105.039246,373.591553 107.730904,370.491272 109.146683,365.655365 
z"/>
<path fill="#FAFAFA" opacity="1.000000" stroke="none" 
	d="
M190.721893,371.924194 
	C192.580383,370.494995 194.122467,369.256989 195.248993,368.352631 
	C198.857300,371.576172 202.281860,374.635559 205.669067,377.661591 
	C193.789169,393.098175 169.184402,395.172668 153.522980,382.336273 
	C138.443649,369.976990 136.580200,345.133575 149.616089,330.250153 
	C163.594269,314.290894 189.045776,313.498230 205.416489,328.894501 
	C202.249756,332.605743 199.059662,336.344421 196.423981,339.433319 
	C190.588287,337.077484 185.354279,333.890472 179.742340,332.943726 
	C170.685715,331.415833 163.327011,336.209442 159.599014,344.318481 
	C155.526169,353.177582 157.409058,364.078186 164.146637,370.646027 
	C170.042297,376.393188 179.336716,377.677216 187.358139,373.825287 
	C188.405975,373.322113 189.391235,372.688599 190.721893,371.924194 
z"/>
<path fill="#F9F9FA" opacity="1.000000" stroke="none" 
	d="
M250.001816,333.663025 
	C245.378220,333.663025 241.254730,333.663025 236.903625,333.663025 
	C236.903625,338.537750 236.903625,342.981323 236.903625,347.780365 
	C247.587738,347.780365 258.369263,347.780365 269.514130,347.780365 
	C269.514130,352.683258 269.514130,357.254242 269.514130,362.228912 
	C258.860474,362.228912 248.076859,362.228912 236.775513,362.228912 
	C236.775513,371.351715 236.775513,380.100311 236.775513,389.087830 
	C231.305832,389.087830 226.352585,389.087830 221.026596,389.087830 
	C221.026596,365.980835 221.026596,342.762177 221.026596,319.331360 
	C238.671753,319.331360 256.267334,319.331360 274.100220,319.331360 
	C274.100220,324.027344 274.100220,328.621765 274.100220,333.663055 
	C266.078491,333.663055 258.290222,333.663055 250.001816,333.663025 
z"/>
<path fill="#ECC018" opacity="1.000000" stroke="none" 
	d="
M131.567230,250.707870 
	C145.041962,251.900604 158.114578,252.940048 171.182953,254.030243 
	C178.819427,254.667313 184.081314,258.446167 184.708267,263.635620 
	C185.297089,268.509338 181.109482,273.128204 173.438614,274.968475 
	C157.774368,278.726410 142.695099,275.790100 128.253876,269.560089 
	C109.215591,261.346802 94.893646,247.436066 83.232712,230.342255 
	C97.999619,240.063904 114.065575,246.563873 131.567230,250.707870 
z"/>
<path fill="#E6BC1D" opacity="1.000000" stroke="none" 
	d="
M183.044739,77.932144 
	C186.681229,82.274185 190.174149,86.274986 192.905960,89.403999 
	C189.656082,92.478600 185.624344,96.292877 181.454910,100.237442 
	C179.183807,95.187408 175.399811,90.324371 166.946442,89.338982 
	C174.539749,87.369606 179.357147,84.030006 181.325729,77.525101 
	C181.363708,77.399597 182.354782,77.562531 183.044739,77.932144 
z"/>
</svg>